HIERARCHY
ROOT Hips
{
	OFFSET 0.000000 0.000000 0.000000
	CHANNELS 6 Xposition Yposition Zposition Zrotation Yrotation Xrotation 
	JOINT LHipJoint
	{
		OFFSET 0.000000 0.000000 0.000000
		CHANNELS 3 Zrotation Yrotation Xrotation
		JOINT LeftUpLeg
		{
			OFFSET 1.363060 -1.794630 0.839290
			CHANNELS 3 Zrotation Yrotation Xrotation
			JOINT LeftLeg
			{
				OFFSET 2.448110 -6.726130 0.000000
				CHANNELS 3 Zrotation Yrotation Xrotation
				JOINT LeftFoot
				{
					OFFSET 2.562200 -7.039590 0.000000
					CHANNELS 3 Zrotation Yrotation Xrotation
					JOINT LeftToeBase
					{
						OFFSET 0.157640 -0.433110 2.322550
						CHANNELS 3 Zrotation Yrotation Xrotation
						End Site
						{
							OFFSET 0.000000 0.000000 0.000000
						}
					}
				}
			}
		}
	}
	JOINT RHipJoint
	{
		OFFSET 0.000000 0.000000 0.000000
		CHANNELS 3 Zrotation Yrotation Xrotation
		JOINT RightUpLeg
		{
			OFFSET -1.305520 -1.794630 0.839290
			CHANNELS 3 Zrotation Yrotation Xrotation
			JOINT RightLeg
			{
				OFFSET -2.542530 -6.985550 0.000000
				CHANNELS 3 Zrotation Yrotation Xrotation
				JOINT RightFoot
				{
					OFFSET -2.568260 -7.056230 0.000000
					CHANNELS 3 Zrotation Yrotation Xrotation
					JOINT RightToeBase
					{
						OFFSET -0.164730 -0.452590 2.363150
						CHANNELS 3 Zrotation Yrotation Xrotation
						End Site
						{
							OFFSET 0.000000 0.000000 0.000000
						}
					}
				}
			}
		}
	}
	JOINT LowerBack
	{
		OFFSET 0.000000 0.000000 0.000000
		CHANNELS 3 Zrotation Yrotation Xrotation
		JOINT Spine
		{
			OFFSET 0.028270 2.035590 -0.193380
			CHANNELS 3 Zrotation Yrotation Xrotation
			JOINT Spine1
			{
				OFFSET 0.056720 2.048850 -0.042750
				CHANNELS 3 Zrotation Yrotation Xrotation
				JOINT Neck
				{
					OFFSET 0.000000 0.000000 0.000000
					CHANNELS 3 Zrotation Yrotation Xrotation
					JOINT Neck1
					{
						OFFSET -0.054170 1.746240 0.172020
						CHANNELS 3 Zrotation Yrotation Xrotation
						JOINT Head
						{
							OFFSET 0.104070 1.761360 -0.123970
							CHANNELS 3 Zrotation Yrotation Xrotation
							End Site
							{
								OFFSET 0.000000 0.000000 0.000000
							}
						}
					}
				}
				JOINT LeftShoulder
				{
					OFFSET 0.000000 0.000000 0.000000
					CHANNELS 3 Zrotation Yrotation Xrotation
					JOINT LeftArm
					{
						OFFSET 3.362410 1.200890 -0.311210
						CHANNELS 3 Zrotation Yrotation Xrotation
						JOINT LeftForeArm
						{
							OFFSET 4.983000 -0.000000 -0.000000
							CHANNELS 3 Zrotation Yrotation Xrotation
							JOINT LeftHand
							{
								OFFSET 3.483560 -0.000000 -0.000000
								CHANNELS 3 Zrotation Yrotation Xrotation
								JOINT LeftFingerBase
								{
									OFFSET 0.000000 0.000000 0.000000
									CHANNELS 3 Zrotation Yrotation Xrotation
									JOINT LeftHandIndex1
									{
										OFFSET 0.715260 -0.000000 -0.000000
										CHANNELS 3 Zrotation Yrotation Xrotation
										End Site
										{
											OFFSET 0.000000 0.000000 0.000000
										}
									}
								}
								JOINT LThumb
								{
									OFFSET 0.000000 0.000000 0.000000
									CHANNELS 3 Zrotation Yrotation Xrotation
									End Site
									{
										OFFSET 0.000000 0.000000 0.000000
									}
								}
							}
						}
					}
				}
				JOINT RightShoulder
				{
					OFFSET 0.000000 0.000000 0.000000
					CHANNELS 3 Zrotation Yrotation Xrotation
					JOINT RightArm
					{
						OFFSET -3.136600 1.374050 -0.404650
						CHANNELS 3 Zrotation Yrotation Xrotation
						JOINT RightForeArm
						{
							OFFSET -5.241900 -0.000000 -0.000000
							CHANNELS 3 Zrotation Yrotation Xrotation
							JOINT RightHand
							{
								OFFSET -3.444170 -0.000000 -0.000000
								CHANNELS 3 Zrotation Yrotation Xrotation
								JOINT RightFingerBase
								{
									OFFSET 0.000000 0.000000 0.000000
									CHANNELS 3 Zrotation Yrotation Xrotation
									JOINT RightHandIndex1
									{
										OFFSET -0.622530 -0.000000 -0.000000
										CHANNELS 3 Zrotation Yrotation Xrotation
										End Site
										{
											OFFSET 0.000000 0.000000 0.000000
										}
									}
								}
								JOINT RThumb
								{
									OFFSET 0.000000 0.000000 0.000000
									CHANNELS 3 Zrotation Yrotation Xrotation
									End Site
									{
										OFFSET 0.000000 0.000000 0.000000
									}
								}
							}
						}
					}
				}
			}
		}
	}
}
MOTION
Frames: 4
Frame Time: 0.008333
1.352094 17.215244 35.297110 178.718921 0.135800 -178.567103 5.204341 0.528401 -1.880565 -27.107661 1.631866 -1.007927 8.972660 17.461025 57.449177 -0.341679 18.345017 19.472359 0.066600 -1.665100 -4.581000 -10.404363 -1.449914 -1.769941 26.041282 13.612674 -24.677353 -0.292259 -12.238458 29.852337 -0.242024 -11.575249 5.801385 -1.411700 7.514800 -21.249900 -0.732171 -3.277646 2.445285 0.508624 -4.723560 -3.435448 -1.373705 -2.581826 11.384455 -4.762422 -1.914788 -24.541681 5.709730 1.805321 11.580527 1.256300 1.243400 21.163000 11.502279 3.209871 -0.690172 -82.603133 12.440687 59.011153 102.132481 -60.919377 -66.048982 1.321905 -0.532934 22.301118 13.934654 2.560972 0.569000 -7.125000 0.000000 0.000000 -11.347200 32.462800 3.543800 -11.019426 -1.263631 1.602295 84.907929 -45.029065 21.299021 -67.994077 62.153927 -35.182616 0.053832 -1.450485 5.310811 -12.322574 -3.402352 0.426900 7.125000 0.000000 0.000000 11.253900 -31.817600 3.692000 
1.385091 17.124640 35.048384 179.071413 0.409806 -179.162622 5.197963 0.495751 -1.896304 -26.306157 2.003434 -2.146015 10.031498 18.026140 60.787135 -0.500193 19.117183 18.806362 0.094400 -1.981200 -5.453800 -10.451127 -1.512986 -1.765978 27.028472 13.544954 -24.314364 -0.714011 -12.911466 32.019470 -0.062755 -11.338510 2.994018 -1.351100 7.358500 -20.782000 -0.411426 -2.954516 3.306149 0.555328 -4.159483 -3.453839 -1.874285 -2.116924 10.281784 -1.840104 0.229162 -22.185644 4.629797 3.178619 11.513742 -0.640100 2.280600 20.047500 12.018337 2.804267 -0.517744 -83.006163 13.789285 58.201900 100.369028 -61.236257 -64.347123 1.318433 -0.476468 23.132900 14.131002 2.823550 0.622400 -7.125000 0.000000 0.000000 -11.196300 32.660800 3.440500 -10.638979 -1.505335 1.707288 84.872995 -44.783184 22.339285 -67.561620 61.993222 -34.803520 0.050635 -1.453540 5.158711 -12.419438 -3.535614 0.458800 7.125000 0.000000 0.000000 11.199100 -31.949300 3.637200 
1.417652 17.026304 34.806845 179.278871 0.773208 -179.528986 5.218737 0.478568 -1.956359 -25.694932 2.241784 -3.519465 11.068546 18.552097 64.030620 -0.650574 19.659213 18.013372 0.083300 -1.862000 -5.124400 -10.469001 -1.535093 -1.852446 27.913054 13.151980 -23.980754 -1.087590 -13.433666 33.815047 0.060664 -11.678767 0.937348 -1.237900 7.055300 -19.879400 -0.368736 -2.498154 3.607085 0.523354 -3.519549 -3.313378 -1.803799 -1.804387 10.783002 -1.834903 0.183461 -22.695714 4.562408 2.935782 11.204209 -0.772500 2.120500 19.788400 12.104969 2.845053 -0.443095 -83.638342 13.457214 57.164227 97.605158 -61.627553 -61.938165 1.294152 -0.437495 23.448174 14.169689 2.967681 0.651100 -7.125000 0.000000 0.000000 -11.149900 32.773500 3.394900 -10.678097 -1.546315 1.747463 85.433351 -42.832500 22.448768 -66.460806 61.861384 -33.936950 0.063402 -1.476395 5.075190 -12.446102 -3.523856 0.452600 7.125000 0.000000 0.000000 11.163300 -31.915700 3.634400 
1.456529 16.936135 34.572929 179.896532 1.068254 179.655090 5.227855 0.508457 -1.930001 -24.522590 2.503561 -4.579430 12.097319 18.958639 67.162130 -0.784674 19.894729 17.143785 0.082400 -1.851900 -5.096400 -10.500072 -1.590068 -1.888131 29.331792 12.803915 -22.967099 -1.453900 -13.835527 35.454159 0.160316 -11.932250 -1.284256 -1.162200 6.843900 -19.253700 0.008665 -2.124390 4.928634 0.526242 -3.006201 -3.362521 -1.700197 -1.528588 9.893014 -1.698970 0.128062 -22.325222 4.469761 2.722449 11.004527 -0.956800 2.066000 19.625400 12.238562 2.731416 -0.429587 -84.251870 14.477433 56.248474 94.873704 -61.921635 -59.579423 1.274383 -0.391046 23.657425 14.377334 3.226982 0.714800 -7.125000 0.000000 0.000000 -10.984100 33.002700 3.280800 -10.722121 -1.418448 1.785476 85.669653 -41.845671 23.131017 -64.643406 61.486696 -32.542838 -0.031455 -1.522659 7.064870 -13.600815 -3.060804 0.366300 7.125000 0.000000 0.000000 10.214300 -31.417100 3.440700 
